<?xml version="1.0" encoding="UTF-8"?>
<svg xmlns="http://www.w3.org/2000/svg" xmlns:xlink="http://www.w3.org/1999/xlink" width="375pt" height="374.999991pt" viewBox="0 0 375 374.999991" version="1.2">
<g id="surface1">
<path style=" stroke:none;fill-rule:nonzero;fill:rgb(7.449341%,7.058716%,7.058716%);fill-opacity:1;" d="M 196.40625 0 C 120.25 0 45 50.75 45 132.917969 C 45 185.164062 74.378906 214.863281 92.195312 214.863281 C 99.546875 214.863281 103.796875 194.375 103.796875 188.582031 C 103.796875 181.683594 86.191406 166.976562 86.191406 138.25 C 86.191406 78.582031 131.617188 36.296875 190.398438 36.296875 C 240.949219 36.296875 278.347656 65.003906 278.347656 117.773438 C 278.347656 157.179688 262.527344 231.09375 211.316406 231.09375 C 192.839844 231.09375 177.039062 217.742188 177.039062 198.601562 C 177.039062 170.554688 195 143.382812 195 114.433594 C 195 65.292969 126.941406 74.207031 126.941406 133.59375 C 126.941406 146.058594 128.496094 159.855469 134.0625 171.210938 C 123.832031 215.296875 105 285.5625 105 330.996094 C 105 345.019531 107.003906 358.820312 108.339844 372.859375 C 110.859375 375.679688 109.613281 375.382812 113.464844 373.972656 C 150.875 322.765625 147.40625 308.164062 164.324219 241.140625 C 173.460938 258.511719 197.066406 267.859375 215.769531 267.859375 C 294.597656 267.859375 330 191.042969 330 121.785156 C 330 48.09375 266.320312 0 196.40625 0 Z M 196.40625 0 "/>
</g>
</svg>
