<?xml version="1.0" encoding="UTF-8"?>
<svg xmlns="http://www.w3.org/2000/svg" xmlns:xlink="http://www.w3.org/1999/xlink" width="375pt" height="374.999991pt" viewBox="0 0 375 374.999991" version="1.2">
<defs>
<clipPath id="clip1">
  <path d="M 3 7.96875 L 372 7.96875 L 372 367.21875 L 3 367.21875 Z M 3 7.96875 "/>
</clipPath>
</defs>
<g id="surface1">
<path style=" stroke:none;fill-rule:nonzero;fill:rgb(98.81897%,99.21875%,99.609375%);fill-opacity:1;" d="M 338.964844 76.414062 L 188.226562 337.492188 L 37.488281 76.414062 Z M 338.964844 76.414062 "/>
<g clip-path="url(#clip1)" clip-rule="nonzero">
<path style=" stroke:none;fill-rule:nonzero;fill:rgb(24.308777%,33.729553%,25.489807%);fill-opacity:1;" d="M 274.964844 7.96875 C 236.601562 7.96875 202.84375 30.996094 187.5 64.773438 C 172.15625 30.996094 138.398438 7.96875 100.035156 7.96875 C 46.332031 7.96875 3.367188 50.957031 3.367188 104.691406 C 3.367188 222.90625 187.5 367.21875 187.5 367.21875 C 187.5 367.21875 371.632812 207.550781 371.632812 104.691406 C 371.632812 50.957031 328.667969 7.96875 274.964844 7.96875 Z M 187.5 315.019531 L 60.140625 84.730469 L 119.984375 84.730469 L 187.5 215.226562 L 255.015625 84.730469 L 314.859375 84.730469 Z M 187.5 315.019531 "/>
</g>
</g>
</svg>
